<svg width="33" height="25" viewBox="0 0 33 25" fill="none" xmlns="http://www.w3.org/2000/svg">
<path d="M16.856 23.9866L31.7874 13.304C31.9204 13.2085 32.0289 13.0828 32.1038 12.9372C32.1787 12.7915 32.218 12.6302 32.2183 12.4664L32.2183 12.4639C32.2179 12.2995 32.1783 12.1375 32.1028 11.9915C32.0273 11.8455 31.918 11.7196 31.7841 11.6242L16.8527 1.01056C16.6984 0.900711 16.5167 0.835579 16.3278 0.82234C16.1388 0.809102 15.9499 0.848271 15.7818 0.935534C15.6134 1.02222 15.4722 1.15366 15.3738 1.31541C15.2753 1.47716 15.2234 1.66294 15.2238 1.85229L15.2238 6.84732L1.81307 6.84691C1.67761 6.84686 1.54347 6.87351 1.41831 6.92533C1.29315 6.97716 1.17944 7.05315 1.08367 7.14896C0.987907 7.24476 0.911964 7.3585 0.860187 7.48368C0.80841 7.60886 0.781816 7.74301 0.781923 7.87847L0.782333 17.1203C0.782279 17.2558 0.808936 17.39 0.860784 17.5152C0.912631 17.6404 0.988651 17.7542 1.08449 17.85C1.18034 17.9458 1.29412 18.0218 1.41935 18.0735C1.54458 18.1253 1.67879 18.152 1.8143 18.1518L15.2234 18.1518L15.2234 23.1485C15.2234 23.5339 15.4407 23.8877 15.7838 24.0657C15.9525 24.1526 16.1418 24.1912 16.3311 24.1773C16.5203 24.1633 16.7019 24.0973 16.856 23.9866Z" fill="#56C784"/>
</svg>
