<svg width="34" height="34" viewBox="0 0 34 34" fill="none" xmlns="http://www.w3.org/2000/svg">
<rect width="34" height="34" rx="4" fill="#56C784"/>
<path d="M29.6094 11.8438C29.6094 12.2604 29.4635 12.6146 29.1719 12.9062L17.8594 24.2188L15.7344 26.3438C15.4427 26.6354 15.0885 26.7812 14.6719 26.7812C14.2552 26.7812 13.901 26.6354 13.6094 26.3438L11.4844 24.2188L5.82812 18.5625C5.53646 18.2708 5.39062 17.9167 5.39062 17.5C5.39062 17.0833 5.53646 16.7292 5.82812 16.4375L7.95312 14.3125C8.24479 14.0208 8.59896 13.875 9.01562 13.875C9.43229 13.875 9.78646 14.0208 10.0781 14.3125L14.6719 18.9219L24.9219 8.65625C25.2135 8.36458 25.5677 8.21875 25.9844 8.21875C26.401 8.21875 26.7552 8.36458 27.0469 8.65625L29.1719 10.7812C29.4635 11.0729 29.6094 11.4271 29.6094 11.8438Z" fill="#18171E"/>
</svg>
