<svg width="50" height="50" viewBox="0 0 50 50" fill="none" xmlns="http://www.w3.org/2000/svg">
<path d="M25 0.852539C11.6707 0.852539 0.852783 11.6705 0.852783 24.9998C0.852783 38.3291 11.6707 49.147 25 49.147C38.3293 49.147 49.1473 38.3291 49.1473 24.9998C49.1473 11.6705 38.3293 0.852539 25 0.852539ZM36.2043 17.2727C35.8421 21.0879 34.2726 30.3605 33.4757 34.6345C33.1376 36.4456 32.4615 37.0493 31.8337 37.1217C30.4331 37.2424 29.3707 36.2041 28.0184 35.3106C25.8935 33.9101 24.6861 33.0408 22.6336 31.6886C20.243 30.119 21.7884 29.2497 23.1648 27.8492C23.527 27.4869 29.7087 21.8606 29.8295 21.3535C29.8462 21.2767 29.844 21.197 29.823 21.1213C29.8019 21.0455 29.7627 20.976 29.7087 20.9189C29.5639 20.7982 29.3707 20.8465 29.2016 20.8706C28.9843 20.9189 25.6037 23.1646 19.0115 27.6077C18.0456 28.2597 17.1763 28.5977 16.4036 28.5736C15.5343 28.5494 13.8923 28.0906 12.6608 27.6801C11.1395 27.1972 9.95629 26.9316 10.0529 26.0864C10.1012 25.6518 10.7049 25.2171 11.8398 24.7583C18.8908 21.6916 23.5753 19.6632 25.9176 18.6973C32.6306 15.8963 34.0069 15.4133 34.9245 15.4133C35.1177 15.4133 35.5765 15.4616 35.8663 15.7031C36.1078 15.8963 36.1802 16.1619 36.2043 16.3551C36.1802 16.5 36.2285 16.9346 36.2043 17.2727Z" fill="white"/>
</svg>
