<svg width="48" height="48" viewBox="0 0 48 48" fill="none" xmlns="http://www.w3.org/2000/svg">
<path d="M40 8C45.52 13.44 47.6 21.04 46.2933 28.1333C47.3867 30.0533 48 32.2933 48 34.6667C48 38.2029 46.5952 41.5943 44.0948 44.0948C41.5943 46.5952 38.2029 48 34.6667 48C32.2933 48 30.0533 47.3867 28.1333 46.2933C21.04 47.6 13.44 45.52 8 40C2.48 34.56 0.4 26.96 1.70667 19.8667C0.613334 17.9467 0 15.7067 0 13.3333C0 9.79711 1.40476 6.40573 3.90524 3.90524C6.40573 1.40476 9.79711 0 13.3333 0C15.7067 0 17.9467 0.613334 19.8667 1.70667C26.96 0.4 34.56 2.48 40 8ZM24.1067 37.76C31.76 37.76 35.5733 34.08 35.5733 29.12C35.5733 25.9467 34.08 22.56 28.2933 21.2533L22.9867 20.08C20.96 19.6267 18.6667 19.0133 18.6667 17.12C18.6667 15.2 20.2667 13.8667 23.2 13.8667C29.1467 13.8667 28.5867 17.9467 31.5467 17.9467C33.0933 17.9467 34.4267 17.04 34.4267 15.4667C34.4267 11.8133 28.5867 9.06667 23.6267 9.06667C18.2667 9.06667 12.5333 11.36 12.5333 17.44C12.5333 20.3733 13.5733 23.4933 19.3333 24.9333L26.5067 26.7467C28.6667 27.28 29.2 28.48 29.2 29.6C29.2 31.4133 27.3867 33.2 24.1067 33.2C17.68 33.2 18.56 28.2667 15.12 28.2667C13.5733 28.2667 12.4533 29.3333 12.4533 30.8533C12.4533 33.8133 16 37.76 24.1067 37.76Z" fill="white"/>
</svg>
