<svg width="50" height="38" viewBox="0 0 50 38" fill="none" xmlns="http://www.w3.org/2000/svg">
<path fill-rule="evenodd" clip-rule="evenodd" d="M18.0936 22.2952L25.0048 27.075L31.6669 22.4261L46.6003 37.3287C46.2063 37.4587 45.7896 37.5246 45.35 37.5263H4.64985C4.11258 37.5263 3.59974 37.42 3.12842 37.2298L18.0936 22.2952ZM49.421 10.048V33.4085C49.421 34.0186 49.2891 34.5966 49.0546 35.1178L34.4167 20.5092L49.421 10.048ZM0.578857 10.179L15.3341 20.3857L0.837721 34.856C0.667903 34.3927 0.580271 33.9026 0.578857 33.4085L0.578857 10.179ZM45.35 0.473633C47.5967 0.473633 49.421 2.31638 49.421 4.59141V6.03894L24.995 23.0708L0.578857 6.17974V4.59141C0.578857 2.31885 2.40067 0.473633 4.64985 0.473633H45.35Z" fill="white"/>
</svg>
