<svg width="438" height="44" viewBox="0 0 438 44" fill="none" xmlns="http://www.w3.org/2000/svg">
<g clip-path="url(#clip0_5_337)">
<path fill-rule="evenodd" clip-rule="evenodd" d="M32.5 0H37L21.25 20.8385L38 43H33.5L19 23.8154L4.49999 43H0L16.75 20.8385L0.999999 1.35296e-05L5.49998 1.25277e-05L19 17.8616L32.5 0ZM153.5 43C160.035 43 165.889 40.0846 169.832 35.4835L166.938 32.8525C163.711 36.6681 158.888 39.0909 153.5 39.0909C143.785 39.0909 135.909 31.2152 135.909 21.5C135.909 11.7848 143.785 3.90909 153.5 3.90909C158.65 3.90909 163.283 6.12234 166.5 9.64959L169.406 7.03448C165.474 2.71274 159.804 0 153.5 0C141.626 0 132 9.62588 132 21.5C132 33.3741 141.626 43 153.5 43ZM438 21.5C438 33.3741 428.374 43 416.5 43C404.626 43 395 33.3741 395 21.5C395 9.62588 404.626 0 416.5 0C428.374 0 438 9.62588 438 21.5ZM434.091 21.5C434.091 31.2152 426.215 39.0909 416.5 39.0909C406.785 39.0909 398.909 31.2152 398.909 21.5C398.909 11.7848 406.785 3.90909 416.5 3.90909C426.215 3.90909 434.091 11.7848 434.091 21.5ZM335 0H339L365 35.6296V0H369V43H365L339 7.25V43H335V0ZM306 0H302V43H306V0ZM205.048 0H205L186 42.9681H190.274L207.024 4.53363L223.775 42.9681H228.048L209.048 3.72106e-06L209 0H205.048ZM56.5 9.50294L54 7.00901C55.9864 4.64434 57.2709 3.51585 60 2.00901C60.1701 1.93904 60.3368 1.87003 60.5009 1.80212C63.0717 0.737901 64.9862 -0.0545783 69 0.00294465C69.3695 0.02612 69.7149 0.042806 70.0444 0.0587211C72.0244 0.154356 73.428 0.222155 76 1.50294C79 2.99688 81.1949 5.27954 82 8.5C83 12.5 82 15.5 81 17.5C80.1835 19.133 79.7003 19.766 78.734 21.032L78.7325 21.034C78.5157 21.318 78.2746 21.6339 78 22L61.7039 39H84V43H56V39L75 19.5C76.5 18 78.27 15.5993 78.5 13.009C78.5746 12.1686 78.5 8.50901 76.5 6.50901C74.5 4.50901 72.0847 3.63196 69 3.50294C66.2067 3.38612 64 4.00294 62 5.00294C60 6.00295 57.945 7.54132 56.5 9.50294ZM274.52 4.85599L272.453 7.71869C270.712 6.01429 268.437 4.82553 266.302 4.15934C264.168 3.49315 261.89 3.23833 259.152 3.80177C256.128 4.42398 253.885 5.67716 252.231 7.97211C250.961 9.73631 250.97 12.286 251.137 13.7424C251.55 15.2743 252.22 17.0961 261.93 19.5992C270.963 21.9277 273.398 22.8244 274.861 26.8522C275.625 28.7347 276.116 31.2202 275.364 34.3274C274.581 37.5635 272.321 39.8902 269.201 41.4446C266.525 42.7772 265.053 42.8733 262.977 43.009C262.631 43.0316 262.269 43.0553 261.881 43.0859C257.669 43.2247 255.644 42.4712 252.925 41.4592C252.751 41.3946 252.575 41.3289 252.395 41.2624C249.501 39.811 248.131 38.7087 246 36.3847L248.576 33.8406C250.131 35.7727 252.318 37.2692 254.437 38.2285C256.555 39.1879 258.884 39.7599 261.814 39.5866C265.05 39.3952 267.568 38.4694 269.629 36.4293C271.69 34.3892 271.698 30.7288 271.603 29.89C271.5 28.9722 271.193 28.0822 270.769 27.2501C268.494 24.817 267.612 24.6274 261.127 23.2346L260.365 23.0708C253.099 21.5069 249.636 19.5768 248.015 16.7457L247.987 16.7615C247.341 15.1873 246.92 13.2282 247.122 10.8197C247.4 7.51175 249.2 4.90654 251.922 2.95067C254.255 1.27385 255.63 0.981744 257.569 0.569705C257.891 0.501136 258.23 0.429245 258.591 0.347099C262.543 -0.35361 264.56 0.12138 267.268 0.759371L267.271 0.760224C267.443 0.800691 267.618 0.841812 267.796 0.883327C270.731 1.93282 272.18 2.84062 274.52 4.85599Z" fill="url(#paint0_linear_5_337)"/>
</g>
<defs>
<linearGradient id="paint0_linear_5_337" x1="438" y1="22" x2="0" y2="22" gradientUnits="userSpaceOnUse">
<stop stop-color="#474598"/>
<stop offset="1" stop-color="#F1F1F1"/>
</linearGradient>
<clipPath id="clip0_5_337">
<rect width="438" height="44" fill="white"/>
</clipPath>
</defs>
</svg>
