<svg width="24" height="4" viewBox="0 0 24 4" fill="none" xmlns="http://www.w3.org/2000/svg">
<path d="M11.2621 3.5C10.7098 3.5 10.2621 3.05228 10.2621 2.5V1.5C10.2621 0.947715 10.7098 0.5 11.2621 0.5H12.7379C13.2902 0.5 13.7379 0.947715 13.7379 1.5V2.5C13.7379 3.05228 13.2902 3.5 12.7379 3.5H11.2621ZM1 3.69802C0.447716 3.69802 0 3.2503 0 2.69802V1.3584C0 0.806113 0.447715 0.358398 1 0.358398H23C23.5523 0.358398 24 0.806114 24 1.3584V2.69802C24 3.2503 23.5523 3.69802 23 3.69802H1Z" fill="white"/>
<path d="M11.2621 3.5C10.7098 3.5 10.2621 3.05228 10.2621 2.5V1.5C10.2621 0.947715 10.7098 0.5 11.2621 0.5H12.7379C13.2902 0.5 13.7379 0.947715 13.7379 1.5V2.5C13.7379 3.05228 13.2902 3.5 12.7379 3.5H11.2621ZM1 3.69802C0.447716 3.69802 0 3.2503 0 2.69802V1.3584C0 0.806113 0.447715 0.358398 1 0.358398H23C23.5523 0.358398 24 0.806114 24 1.3584V2.69802C24 3.2503 23.5523 3.69802 23 3.69802H1Z" fill="url(#paint0_linear_5_161)"/>
<defs>
<linearGradient id="paint0_linear_5_161" x1="12" y1="-10" x2="12" y2="14" gradientUnits="userSpaceOnUse">
<stop stop-color="#FCEFC7"/>
<stop offset="0.245" stop-color="#FFED47"/>
<stop offset="0.49" stop-color="#F1D3A3"/>
<stop offset="0.725" stop-color="#B78000"/>
<stop offset="0.975" stop-color="#FFCE47"/>
</linearGradient>
</defs>
</svg>
