<svg width="24" height="24" viewBox="0 0 24 24" fill="none" xmlns="http://www.w3.org/2000/svg">
<path d="M11.2621 24C10.7098 24 10.2621 23.5523 10.2621 23V1C10.2621 0.447716 10.7098 0 11.2621 0H12.7379C13.2902 0 13.7379 0.447715 13.7379 1V23C13.7379 23.5523 13.2902 24 12.7379 24H11.2621ZM1 13.6981C0.447716 13.6981 0 13.2504 0 12.6981V11.3585C0 10.8062 0.447715 10.3585 1 10.3585H23C23.5523 10.3585 24 10.8062 24 11.3585V12.6981C24 13.2504 23.5523 13.6981 23 13.6981H1Z" fill="white"/>
<path d="M11.2621 24C10.7098 24 10.2621 23.5523 10.2621 23V1C10.2621 0.447716 10.7098 0 11.2621 0H12.7379C13.2902 0 13.7379 0.447715 13.7379 1V23C13.7379 23.5523 13.2902 24 12.7379 24H11.2621ZM1 13.6981C0.447716 13.6981 0 13.2504 0 12.6981V11.3585C0 10.8062 0.447715 10.3585 1 10.3585H23C23.5523 10.3585 24 10.8062 24 11.3585V12.6981C24 13.2504 23.5523 13.6981 23 13.6981H1Z" fill="url(#paint0_linear_5_148)"/>
<defs>
<linearGradient id="paint0_linear_5_148" x1="12" y1="0" x2="12" y2="24" gradientUnits="userSpaceOnUse">
<stop stop-color="#FCEFC7"/>
<stop offset="0.245" stop-color="#FFED47"/>
<stop offset="0.49" stop-color="#F1D3A3"/>
<stop offset="0.725" stop-color="#B78000"/>
<stop offset="0.975" stop-color="#FFCE47"/>
</linearGradient>
</defs>
</svg>
